PathFileType	4	(X/Y/Z)	c:/Users/goper/Files/vsCode/490R/osim_files/C03/C03_fast_03.trc
DataRate	CameraRate	NumFrames	NumMarkers	Units                	OrigDataRate	OrigDataStartFrame	OrigNumFrames
250.00	250.00	5	36	mm	250.0	2552	3402
                Frame#	Time	LPSIS			LASIS			LTH1			LTH2			LTH3			LTH4			LLFE			LMFE			LSH1			LSH2			LSH3			LSH4			LLMAL			LMMAL			LCAL			LMTP5			LTOE			LMTP1			RPSIS			RASIS			RTH1			RTH2			RTH3			RTH4			RLFE			RMFE			RSH1			RSH2			RSH3			RSH4			RLMAL			RMMAL			RCAL			RMTP1			RTOE			RMTP5		
		X1	Y1	Z1	X2	Y2	Z2	X3	Y3	Z3	X4	Y4	Z4	X5	Y5	Z5	X6	Y6	Z6	X7	Y7	Z7	X8	Y8	Z8	X9	Y9	Z9	X10	Y10	Z10	X11	Y11	Z11	X12	Y12	Z12	X13	Y13	Z13	X14	Y14	Z14	X15	Y15	Z15	X16	Y16	Z16	X17	Y17	Z17	X18	Y18	Z18	X19	Y19	Z19	X20	Y20	Z20	X21	Y21	Z21	X22	Y22	Z22	X23	Y23	Z23	X24	Y24	Z24	X25	Y25	Z25	X26	Y26	Z26	X27	Y27	Z27	X28	Y28	Z28	X29	Y29	Z29	X30	Y30	Z30	X31	Y31	Z31	X32	Y32	Z32	X33	Y33	Z33	X34	Y34	Z34	X35	Y35	Z35	X36	Y36	Z36

2552	10.20400	-1965.04871	1048.65137	281.77969	-2142.11108	989.25134	324.79770	-2143.28638	641.68848	360.43759	-2170.71411	586.50317	351.52460	-2214.34741	669.98346	368.94189	-2231.30786	611.40497	358.12473	-2207.28052	519.83167	346.68604	-2223.60425	509.44592	235.96902	-2057.83105	408.16330	344.20319	-2035.65247	366.60455	342.14090	-2107.31030	377.41681	359.15894	-2077.79248	340.13089	355.28262	-1975.65137	208.94778	332.86047	-2007.50928	200.44748	258.54623	-1901.46130	212.18472	292.29984	-2048.19141	85.79427	369.25964	-2088.71069	81.26521	318.28830	-2063.30444	77.76437	278.06924	-1973.91675	1045.15710	169.48141	-2143.45142	997.89044	120.15064	-2017.47546	614.74847	110.37350	-2017.91101	553.93073	124.54675	-2078.83618	615.30951	89.65392	-2089.55566	554.54419	99.31595	-2087.20996	484.60889	121.81134	-2074.66138	506.80399	228.82919	-1984.94409	305.10995	115.65838	-1985.23828	257.64780	119.41855	-2046.34216	295.75528	107.72376	-2036.54382	253.39557	111.01949	-2018.00720	99.13631	142.50882	-2028.92603	105.68575	222.50336	-1946.89441	64.04373	179.89041	-2149.92773	53.84816	232.08446	-2178.62085	70.73730	193.49597	-2131.80640	39.16170	126.36153
2553	10.20800	-1971.24023	1049.03870	282.04636	-2148.21924	989.85352	324.22235	-2151.46338	642.91931	360.63034	-2179.31079	587.92548	351.64307	-2221.66211	671.75677	368.42859	-2239.56445	613.31372	357.40759	-2216.54541	521.42389	346.24759	-2232.60083	511.40198	235.56453	-2069.14355	406.32825	343.81110	-2047.85278	364.44604	341.73404	-2119.41846	376.74561	358.76932	-2090.63989	338.81207	354.90793	-1991.39709	205.34099	332.41360	-2023.50854	197.57651	258.16956	-1917.02197	206.52022	291.69507	-2067.02490	84.25984	369.20526	-2108.01538	80.57191	318.14761	-2082.49609	76.34622	278.06631	-1979.55811	1045.37451	169.69508	-2148.92773	997.83093	119.61633	-2020.08325	615.39014	110.42927	-2020.08276	554.49030	124.71703	-2081.13599	615.40503	89.69431	-2091.61792	554.42175	99.27109	-2088.63867	484.57086	121.68202	-2076.69727	506.66504	228.87677	-1985.59619	305.51035	116.05820	-1985.75757	257.97647	119.80624	-2046.93750	295.89444	107.78645	-2036.91052	253.61322	111.08377	-2018.20825	99.37199	142.67873	-2029.07178	105.62653	222.75691	-1946.97168	64.17380	179.94954	-2150.32397	53.86922	232.25818	-2178.72485	70.56897	193.48044	-2131.83398	39.13832	126.35722
2554	10.21200	-1977.25342	1049.43738	282.30872	-2154.31299	990.42615	323.62238	-2159.64722	644.10461	360.85046	-2187.79126	589.29761	351.68155	-2229.63086	673.60156	368.06665	-2247.95361	615.29492	356.95956	-2225.73340	522.88196	345.83881	-2241.53271	513.25415	235.18181	-2080.62207	404.40323	343.58209	-2060.24658	361.96472	341.51331	-2131.49609	375.94263	358.36633	-2103.50830	337.35190	354.46747	-2007.18469	201.65457	331.94504	-2039.58521	194.65843	257.83829	-1932.24084	201.04048	290.97305	-2085.98877	82.64513	369.13623	-2126.84814	80.09694	318.19769	-2101.86157	75.00595	277.97955	-1985.19128	1045.48169	169.95439	-2154.43408	997.80927	119.10931	-2022.77295	615.77277	110.90359	-2022.29993	554.97797	124.91969	-2083.96899	615.22253	89.65412	-2093.20166	554.38330	99.39829	-2090.15845	484.49597	121.66016	-2078.66919	506.51129	229.02251	-1986.29236	305.92267	116.43160	-1986.30493	258.36227	120.18044	-2047.56836	296.07501	107.81860	-2037.38196	253.75995	111.21709	-2018.29578	99.59716	142.69391	-2029.27283	105.68130	222.89926	-1947.00232	64.31681	180.00575	-2150.44531	53.82295	232.23306	-2178.87183	70.43240	193.46217	-2131.69116	39.09883	126.09175
2555	10.21600	-1983.41028	1049.68933	282.61304	-2160.39844	990.78644	323.06165	-2167.73071	645.19324	361.11938	-2196.12012	590.47784	351.63437	-2237.36768	675.09357	367.37610	-2256.52588	617.33771	356.84277	-2234.62622	524.25146	345.52307	-2250.29492	514.78687	233.72429	-2091.94360	402.33197	343.31662	-2072.45654	359.52722	341.06241	-2143.54395	375.04688	358.08215	-2116.53296	335.87454	354.16754	-2023.07812	197.90755	331.58167	-2055.80688	191.58122	257.38977	-1948.83484	195.18819	290.62982	-2104.85498	81.24205	368.99927	-2145.93091	79.57735	318.21957	-2121.14380	73.77969	277.90030	-1990.72852	1045.48657	170.34438	-2159.93677	997.63312	118.62865	-2025.55835	616.21985	111.13712	-2024.57715	555.46246	125.21803	-2086.48950	615.25818	89.71631	-2095.35547	554.19086	99.39164	-2091.67700	484.37628	121.66295	-2080.66699	506.28897	229.11649	-1987.17346	306.29294	116.83808	-1986.89368	258.79440	120.53599	-2047.63538	296.18594	107.06536	-2037.85034	253.89595	111.33073	-2018.45898	99.84544	142.91058	-2029.78296	105.61768	223.21336	-1947.09705	64.42276	180.07329	-2150.54028	53.77736	232.23311	-2178.98779	70.28217	193.44847	-2131.68921	39.07755	126.06522
2556	10.22000	-1989.60889	1049.74756	282.88892	-2165.99316	990.68573	322.59772	-2175.63477	646.21344	361.31131	-2204.48413	591.66626	351.77896	-2246.15332	677.04669	367.42526	-2264.68555	619.08173	356.35904	-2243.52319	525.51630	345.15540	-2258.85181	516.28864	233.43301	-2103.32349	400.06143	343.04733	-2084.93726	356.84769	340.83072	-2155.45068	374.08569	357.81763	-2129.46802	334.25378	353.80496	-2039.34692	194.00298	330.97360	-2072.28491	188.65904	257.02020	-1964.91211	189.48170	290.01312	-2124.49683	79.69487	368.95657	-2165.06592	79.13422	318.20679	-2140.80078	72.85947	277.61493	-1996.24231	1045.47192	170.63129	-2165.37207	997.40363	118.13084	-2028.30042	616.61969	111.37856	-2026.76196	555.86456	125.41968	-2089.32812	615.05115	89.75959	-2097.61890	554.05078	99.38911	-2093.38403	484.28018	121.54740	-2082.53735	506.16818	229.36758	-1988.00024	306.60123	117.11411	-1987.61938	259.14087	120.82005	-2048.45947	296.29968	107.20574	-2038.47803	254.05446	111.47924	-2018.66333	100.11633	143.12378	-2029.46545	106.30006	223.05853	-1947.17041	64.54271	180.11607	-2150.61597	53.68191	232.21835	-2179.11377	70.12989	193.44994	-2131.70093	39.03538	126.04089
